<?xml version="1.0" standalone="no"?>
<!DOCTYPE svg PUBLIC "-//W3C//DTD SVG 20010904//EN"
 "http://www.w3.org/TR/2001/REC-SVG-20010904/DTD/svg10.dtd">
<svg version="1.0" xmlns="http://www.w3.org/2000/svg"
 width="100.000000pt" height="100.000000pt" viewBox="0 0 100.000000 100.000000"
 preserveAspectRatio="xMidYMid meet">

<g transform="translate(0.000000,100.000000) scale(0.100000,-0.100000)"
fill="#000000" stroke="none">
<path d="M421 871 c-6 -11 -11 -31 -11 -45 0 -24 -23 -56 -40 -56 -5 0 -12 -9
-15 -20 -4 -14 -15 -20 -36 -20 -39 0 -89 -22 -113 -49 -11 -11 -25 -42 -31
-68 -8 -30 -18 -49 -29 -51 -14 -3 -16 8 -16 86 0 76 3 91 20 107 25 23 26 47
2 68 -24 22 -45 21 -65 -1 -22 -25 -21 -45 3 -67 17 -16 20 -31 20 -112 0 -73
-3 -93 -14 -93 -19 0 -26 -22 -26 -78 0 -60 7 -70 55 -80 l40 -8 5 -82 c6 -92
24 -125 81 -154 29 -15 64 -18 244 -18 180 0 215 3 244 18 57 29 75 62 81 154
l5 82 40 8 c48 10 55 20 55 80 0 56 -7 78 -26 78 -11 0 -14 20 -14 93 0 81 3
96 20 112 25 23 26 47 2 68 -24 22 -45 21 -65 -1 -22 -25 -21 -45 3 -67 17
-16 20 -31 20 -107 0 -78 -2 -89 -16 -86 -11 2 -21 21 -29 51 -6 26 -20 57
-31 68 -24 27 -74 49 -113 49 -21 0 -32 6 -36 19 -3 11 -15 23 -25 26 -11 4
-22 18 -25 33 -16 78 -15 77 -87 80 -58 3 -68 0 -77 -17z m-277 -57 c9 -8 16
-19 16 -24 0 -11 -29 -40 -40 -40 -11 0 -40 29 -40 40 0 11 29 40 40 40 5 0
16 -7 24 -16z m750 0 c9 -8 16 -19 16 -24 0 -5 -7 -16 -16 -24 -8 -9 -19 -16
-24 -16 -5 0 -16 7 -24 16 -9 8 -16 19 -16 24 0 5 7 16 16 24 8 9 19 16 24 16
5 0 16 -7 24 -16z m-276 -56 c7 -7 12 -16 12 -20 0 -4 -61 -8 -135 -8 -74 0
-135 4 -135 8 0 4 5 13 12 20 17 17 229 17 246 0z m144 -86 l33 -32 0 -210 0
-210 -33 -32 -32 -33 -235 0 -235 0 -32 33 -33 32 0 209 0 209 25 27 c14 15
34 31 45 36 11 4 120 7 242 6 l223 -2 32 -33z m-592 -197 c0 -59 -2 -65 -21
-65 -42 0 -59 18 -59 65 0 47 15 64 58 65 21 0 22 -4 22 -65z m711 55 c14 -8
19 -21 19 -55 0 -47 -16 -65 -59 -65 -19 0 -21 6 -21 65 0 59 2 65 21 65 11 0
29 -5 40 -10z"/>
<path d="M289 581 c-39 -40 -39 -82 0 -122 40 -39 82 -39 122 0 20 20 29 39
29 61 0 43 -47 90 -90 90 -22 0 -41 -9 -61 -29z m95 8 c58 -27 55 -115 -5
-139 -63 -26 -125 36 -100 99 19 44 60 60 105 40z"/>
<path d="M320 545 c-15 -18 -10 -45 13 -59 34 -22 73 27 47 59 -16 19 -44 19
-60 0z m55 -25 c0 -18 -6 -26 -23 -28 -13 -2 -25 3 -28 12 -10 26 4 48 28 44
17 -2 23 -10 23 -28z"/>
<path d="M579 581 c-20 -20 -29 -39 -29 -61 0 -43 47 -90 90 -90 43 0 90 47
90 90 0 22 -9 41 -29 61 -20 20 -39 29 -61 29 -22 0 -41 -9 -61 -29z m95 8
c58 -27 55 -115 -5 -139 -63 -26 -125 36 -100 99 19 44 60 60 105 40z"/>
<path d="M610 545 c-15 -18 -10 -45 13 -59 34 -22 73 27 47 59 -16 19 -44 19
-60 0z m55 -25 c0 -18 -6 -26 -23 -28 -13 -2 -25 3 -28 12 -10 26 4 48 28 44
17 -2 23 -10 23 -28z"/>
<path d="M310 305 c0 -32 6 -51 20 -65 18 -18 33 -20 165 -20 132 0 147 2 165
20 14 14 20 33 20 65 l0 45 -185 0 -185 0 0 -45z m61 13 l2 -23 4 23 c3 15 11
22 29 22 22 0 24 -3 24 -55 0 -52 -1 -55 -25 -55 -21 0 -25 5 -27 33 l-1 32
-4 -32 c-5 -38 -9 -40 -35 -16 -11 10 -18 30 -18 55 0 34 3 38 25 38 19 0 25
-6 26 -22z m121 -20 l1 -43 4 43 c4 37 7 42 29 42 16 0 24 -6 25 -17 1 -17 2
-17 6 0 3 10 14 17 29 17 22 0 24 -3 24 -55 0 -52 -1 -55 -25 -55 -22 0 -25 5
-27 38 l-1 37 -4 -37 c-4 -33 -8 -38 -29 -38 -13 0 -24 6 -25 13 0 10 -2 10
-6 0 -2 -7 -16 -13 -29 -13 -22 0 -24 4 -24 55 0 52 1 55 25 55 22 0 25 -4 27
-42z m178 5 c0 -34 -22 -73 -42 -73 -4 0 -8 25 -8 55 0 52 1 55 25 55 22 0 25
-4 25 -37z"/>
</g>
</svg>
